<svg width="48" height="48" viewBox="0 0 48 48" fill="none" xmlns="http://www.w3.org/2000/svg">
<circle opacity="0.6" cx="24" cy="24" r="23.5" stroke="white"/>
<g opacity="0.6">
<path fill-rule="evenodd" clip-rule="evenodd" d="M31.777 15.43C32.0241 15.326 32.2946 15.2901 32.5603 15.3261C32.826 15.3621 33.0772 15.4687 33.2877 15.6347C33.4982 15.8007 33.6604 16.0201 33.7574 16.2701C33.8543 16.5201 33.8825 16.7915 33.839 17.056L31.571 30.813C31.351 32.14 29.895 32.901 28.678 32.24C27.66 31.687 26.148 30.835 24.788 29.946C24.108 29.501 22.025 28.076 22.281 27.062C22.501 26.195 26.001 22.937 28.001 21C28.786 20.239 28.428 19.8 27.501 20.5C25.199 22.238 21.503 24.881 20.281 25.625C19.203 26.281 18.641 26.393 17.969 26.281C16.743 26.077 15.606 25.761 14.678 25.376C13.424 24.856 13.485 23.132 14.677 22.63L31.777 15.43Z" fill="white"/>
</g>
</svg>
