<svg width="47" height="47" viewBox="0 0 47 47" fill="none" xmlns="http://www.w3.org/2000/svg">
<g clip-path="url(#clip0_62_185)">
<path d="M21.8689 0.323317C21.835 0.493485 21.6736 1.06355 21.5122 1.57405C21.3424 2.09307 21.0536 2.87584 20.8583 3.31828C20.6545 3.76071 20.2553 4.55199 19.9581 5.0625C19.6693 5.58151 19.1597 6.38981 18.8455 6.87479C18.5228 7.35126 18.2085 7.75115 18.1491 7.75115C18.0981 7.75966 17.9707 7.75115 17.8773 7.74264C17.7839 7.73414 17.2489 7.50441 16.6883 7.22363C16.1278 6.94285 15.3465 6.50042 14.9473 6.23666C14.5312 5.95588 13.8263 5.35178 13.2912 4.81575C12.7732 4.29674 12.2381 3.69264 12.1022 3.47143C11.9579 3.2417 11.8135 3.06302 11.7625 3.06302C11.7116 3.07153 11.3803 3.25021 11.0236 3.47143C10.6585 3.69264 10.3612 3.88834 10.3612 3.91386C10.3612 3.93939 10.599 4.27972 10.8963 4.67962C11.1935 5.07951 11.822 5.7687 12.2806 6.21113C12.7392 6.65357 13.5375 7.30021 14.0556 7.64905C14.5736 7.98939 15.3974 8.48288 15.907 8.72962C16.4081 8.98487 16.8412 9.24012 16.8667 9.29968C16.9007 9.35924 16.7563 9.56344 16.5525 9.77615C16.3486 9.97185 15.7032 10.5674 15.1172 11.0779C14.5312 11.597 13.6564 12.3031 13.1638 12.652C12.6712 13.0008 12.1277 13.3667 11.9494 13.4518C11.7031 13.5794 11.6181 13.5879 11.5587 13.5113C11.5162 13.4518 11.2275 12.9243 10.9132 12.3372C10.599 11.7501 10.1234 10.9503 9.85164 10.5504C9.57987 10.1505 9.01935 9.4188 8.6032 8.92531C8.19555 8.43183 7.60954 7.75966 7.32079 7.43634L6.77725 6.84926C5.93646 7.74264 5.69017 8.03193 5.69017 8.08298C5.69017 8.13403 5.94496 8.44884 6.26768 8.78918C6.58192 9.12101 7.10847 9.7251 7.43969 10.125C7.77091 10.5249 8.21253 11.095 8.42485 11.4013C8.62868 11.7076 8.9514 12.2266 9.12975 12.5499C9.3166 12.8732 9.58836 13.4518 9.74123 13.8262C9.96205 14.3537 10.0045 14.5238 9.91958 14.5749C9.86013 14.6174 9.53741 14.7791 9.21468 14.9322C8.89196 15.0854 8.1276 15.3917 7.51612 15.6129C6.90464 15.8341 5.97044 16.1234 5.43539 16.2596C4.90034 16.3957 3.98312 16.5829 3.39712 16.6765C2.81112 16.7701 2.02129 16.8551 1.63911 16.8637C1.24844 16.8807 0.93421 16.8892 0.93421 16.8892C0.93421 16.8892 0.840789 17.2891 0.72189 17.7826C0.602991 18.276 0.518063 18.6845 0.526556 18.693C0.543541 18.71 1.14653 18.6589 1.86842 18.5909C2.5903 18.5143 3.52451 18.4037 3.94915 18.3271C4.3653 18.259 5.11266 18.0974 5.60525 17.9783C6.09783 17.8591 6.89615 17.6294 7.38873 17.4677C7.88131 17.2976 8.73909 16.9828 9.29961 16.7445C10.2508 16.3531 10.3272 16.3361 10.4207 16.4808C10.4801 16.5659 10.5565 16.9232 10.582 17.2721C10.616 17.6209 10.616 18.4632 10.582 19.1439C10.5565 19.8246 10.4886 20.6073 10.4461 20.8881C10.3952 21.1689 10.3103 21.4497 10.2593 21.5007C10.1914 21.5603 9.58836 21.6624 8.87497 21.739C8.17007 21.807 6.20823 21.9772 4.50118 22.1218C2.79413 22.258 1.10407 22.4026 0.738875 22.4452L0.0849304 22.5047V24.2064C1.43528 24.0958 3.49054 23.9171 5.52032 23.7299C7.55009 23.5513 9.34207 23.3981 9.48645 23.3981C9.74973 23.3981 9.76671 23.4151 9.71576 23.6363C9.69028 23.764 9.43549 24.4191 9.14674 25.0998C8.85798 25.7719 8.56074 26.4016 8.49279 26.4867C8.3654 26.6483 8.33992 26.6483 7.26134 26.4696C6.64986 26.3675 5.52881 26.2399 4.75597 26.1889C3.67738 26.1123 3.01494 26.1123 1.86842 26.1974C1.05311 26.2569 0.365193 26.3165 0.339714 26.342C0.314236 26.3675 0.348207 26.6994 0.407657 27.0822C0.475599 27.4651 0.560527 27.8395 0.594498 27.9076C0.66244 28.0182 0.798325 28.0182 1.75801 27.9161C2.50538 27.831 3.26973 27.814 4.20393 27.848C4.9513 27.882 5.91099 27.9586 6.32713 28.0267C6.74328 28.0947 7.15943 28.1713 7.23586 28.2054C7.32079 28.2309 7.38873 28.2989 7.38873 28.3585C7.38873 28.4096 7.1934 28.7924 6.94711 29.2008C6.70082 29.6092 6.07235 30.5537 5.5458 31.2854C5.01924 32.0256 4.26338 33.0466 3.86422 33.5656C3.46506 34.0847 3.14234 34.5356 3.14234 34.5867C3.14234 34.6377 3.32918 34.978 3.56698 35.3524C3.80477 35.7268 4.02559 36.0416 4.05956 36.0501C4.09353 36.0586 4.75597 35.2163 5.52881 34.1783C6.31015 33.1402 7.26983 31.8129 7.6605 31.2258C8.05966 30.6388 8.54375 29.8815 8.73909 29.5497C8.94291 29.1838 9.15523 28.9116 9.25714 28.886C9.35057 28.8605 9.57138 28.886 9.74123 28.9371C9.91958 28.9881 10.5056 29.2519 11.0406 29.5242C11.5757 29.7879 12.2806 30.1708 12.6118 30.375C12.9345 30.5707 13.4696 30.928 13.8008 31.1663C14.1235 31.396 14.6331 31.7874 14.9303 32.0256C15.2191 32.2639 15.4569 32.5106 15.4569 32.5702C15.4569 32.6212 15.2191 32.9871 14.9303 33.3785C14.6416 33.7613 13.7753 34.8589 13.011 35.8204C12.2381 36.7818 11.202 38.0411 10.7094 38.6281C10.2168 39.2152 9.53741 39.981 9.1977 40.3298C8.85798 40.6787 8.58622 40.9935 8.57772 41.036C8.57772 41.0701 8.88346 41.3253 9.25714 41.6061L9.93657 42.1166C10.3018 41.6656 10.7349 41.1807 11.1341 40.7382C11.5332 40.3043 12.1447 39.6066 12.4929 39.1812C12.8411 38.7558 13.8348 37.4965 14.7095 36.3734C15.5758 35.2503 16.3911 34.2378 16.5185 34.1187L16.7478 33.906C17.4017 34.6292 17.9283 35.3439 18.3359 35.948C18.7436 36.5521 19.2871 37.4029 19.5334 37.8198C19.7797 38.2453 20.1449 38.9174 20.3487 39.3343C20.5526 39.7427 20.7224 40.1256 20.7224 40.1852C20.7309 40.2362 20.3148 40.4745 19.8137 40.7042C19.3126 40.9339 18.6502 41.2572 18.3444 41.4189C18.0387 41.5891 17.4102 41.9719 16.9431 42.2782C16.476 42.5846 15.6777 43.1716 15.1596 43.5885C14.6416 44.0055 14.2169 44.3713 14.2 44.3968C14.1915 44.4309 14.3613 44.5245 14.5821 44.6181C14.8114 44.7031 15.2276 44.8648 15.5163 44.9754L16.0514 45.1796C16.4166 44.7627 17.0196 44.3118 17.6225 43.9119C18.2255 43.5035 19.1682 42.9504 19.7033 42.6781C20.2383 42.3974 20.8328 42.1251 21.0197 42.057C21.3254 41.9464 21.3679 41.9549 21.4868 42.0911C21.5547 42.1762 21.8095 42.9334 22.0558 43.7757C22.3021 44.6181 22.5569 45.5285 22.6333 45.8007L22.7607 46.2857C24.1195 46.2857 24.4592 46.2517 24.4592 46.2006C24.4592 46.1581 24.3403 45.6476 24.2045 45.0775C24.0601 44.4989 23.7883 43.5205 23.61 42.9079C23.4231 42.2868 23.2703 41.6997 23.2703 41.6061C23.2703 41.5125 23.2957 41.4189 23.3297 41.4019C23.3722 41.3764 23.7798 41.2998 24.2469 41.2232C24.714 41.1551 25.5123 41.0616 26.0304 41.019C26.5485 40.985 26.9731 40.9594 26.9901 40.9594C26.9986 40.968 26.9646 41.6571 26.9137 42.4995C26.8372 43.6396 26.8372 44.2692 26.9137 44.9669C26.9646 45.4774 27.0156 45.9113 27.0241 45.9284C27.0411 45.9454 27.4147 45.8858 27.8564 45.8007C28.5782 45.6561 28.6632 45.6221 28.6292 45.4774C28.6037 45.3838 28.5867 44.6606 28.5867 43.8608C28.5867 43.061 28.6377 42.1336 28.6887 41.7933C28.7481 41.4614 28.816 41.1807 28.85 41.1807C28.8925 41.1807 29.3256 41.2913 29.8267 41.4359C30.3363 41.5721 31.1261 41.8443 31.5932 42.0315C32.0603 42.2187 32.7737 42.542 33.1813 42.7547C33.5975 42.9589 34.0221 43.1972 34.141 43.2737C34.3449 43.4099 34.3703 43.4014 35.1347 42.9334C35.5678 42.6696 35.9245 42.4314 35.9245 42.3974C35.9245 42.3548 35.5933 42.1336 35.1856 41.8869C34.7695 41.6401 33.9966 41.2317 33.4616 40.985C32.9266 40.7297 32.1028 40.3809 31.6357 40.2022C31.1685 40.032 30.4636 39.8023 30.0645 39.7002C29.3851 39.513 29.3426 39.496 29.3171 39.2578C29.3001 39.1216 29.3851 38.6452 29.504 38.2027C29.6229 37.7603 29.8522 37.0115 30.0135 36.5436C30.1749 36.0756 30.5231 35.2163 30.7779 34.6292C31.0412 34.0421 31.3044 33.5146 31.3639 33.455C31.4488 33.37 31.6187 33.4891 32.2726 34.0847C32.7142 34.4931 33.555 35.2333 34.141 35.7183C34.727 36.2033 35.7716 37.0371 36.4765 37.5561C37.173 38.0836 38.1241 38.7728 38.5743 39.0791L39.4066 39.6492L40.5955 38.3729C38.914 37.2328 37.8524 36.4755 37.156 35.948C36.4511 35.4205 35.4659 34.6207 34.9478 34.1783C34.4298 33.7358 33.6399 33.0126 33.1813 32.5787C32.7312 32.1362 32.3575 31.7448 32.3575 31.6938C32.3575 31.6427 32.6463 31.1663 33.003 30.6302C33.3597 30.0942 33.9457 29.2689 34.3024 28.8009C34.6591 28.333 35.5933 27.2864 36.3916 26.4696C37.1899 25.6613 38.1581 24.7169 38.5573 24.3851C38.9564 24.0533 39.6444 23.5257 40.086 23.2109C40.5276 22.9046 41.3174 22.3856 41.827 22.0708C42.3366 21.756 43.4491 21.1604 44.2899 20.7435C45.1307 20.3351 45.8696 19.9947 45.9205 19.9947C45.98 19.9947 46.0309 19.9097 46.0309 19.8076C46.0309 19.697 45.9715 19.3226 45.9035 18.9737C45.8356 18.6249 45.7592 18.3186 45.7337 18.2931C45.7082 18.2675 45.1307 18.4973 44.4428 18.8036C43.7549 19.1099 42.6168 19.6799 41.9204 20.0713C41.2155 20.4542 40.2728 21.0243 39.8312 21.3135C39.3896 21.6113 38.6252 22.1814 38.1326 22.5728C37.6401 22.9642 36.8247 23.6874 36.3067 24.1724C35.7886 24.6574 34.9903 25.4571 34.5317 25.9506C34.0646 26.4441 33.3937 27.2099 33.037 27.6523C32.6888 28.0947 32.1112 28.8775 31.763 29.388L31.1261 30.3154C30.7609 29.8645 30.3193 29.2179 29.9201 28.5882C29.5125 27.9586 28.9434 26.9801 28.6547 26.4186C28.3574 25.857 27.9158 24.8786 27.661 24.2489C27.4062 23.6193 27.0411 22.5558 26.8457 21.8921C26.6589 21.22 26.4975 20.5988 26.4975 20.5052C26.4975 20.4031 26.5909 20.284 26.7268 20.216C26.8627 20.1564 27.3808 19.9777 27.8988 19.8331C28.4084 19.6799 29.4785 19.3396 30.2768 19.0843C31.0751 18.8206 32.366 18.3696 33.1644 18.0804C33.9627 17.7911 35.296 17.2721 36.1368 16.9317C36.9776 16.5914 38.3704 15.9958 39.2367 15.6129C40.103 15.23 41.5467 14.5409 42.4385 14.0899L44.0776 13.2731C43.4831 12.0904 43.2878 11.7501 43.2453 11.7671C43.2113 11.7756 42.4385 12.167 41.5298 12.6265C40.621 13.0859 39.1518 13.7921 38.26 14.1835C37.3683 14.5834 35.882 15.213 34.9478 15.5874C34.0136 15.9618 32.0603 16.6595 30.6165 17.1444C29.1642 17.6294 27.8479 18.0548 27.6865 18.0889C27.5082 18.1229 27.4062 18.1229 27.4317 18.0718C27.4572 18.0293 28.23 16.4808 29.1473 14.6345C30.0645 12.7881 30.8883 11.2141 30.9732 11.1375C31.0581 11.0609 31.5422 10.9163 32.0603 10.8142C32.5699 10.7121 33.4956 10.4909 34.0986 10.3377C34.7015 10.176 35.6442 9.89527 36.1793 9.69958C36.7143 9.50388 37.5551 9.17206 38.0477 8.95935C38.5403 8.74664 39.2707 8.39779 39.6783 8.17657C40.086 7.96386 40.4257 7.76817 40.4257 7.74264C40.4257 7.71712 40.1709 7.43634 39.8567 7.12153L39.2792 6.53445C38.0307 7.12153 37.1305 7.50441 36.4765 7.76817C35.8226 8.03193 34.8289 8.38078 34.2684 8.54243C33.7079 8.70409 32.935 8.89979 32.5529 8.99338C32.1707 9.07846 31.8225 9.1125 31.7885 9.07846C31.7545 9.03592 31.814 8.77216 31.9244 8.48288C32.0348 8.19359 32.4 7.13004 32.7482 6.12605C33.0879 5.12206 33.4616 3.91386 33.5805 3.4459C33.6994 2.97794 33.7843 2.58655 33.7758 2.58655C33.7673 2.57804 33.4446 2.41638 33.0539 2.22069C32.6718 2.03351 32.2981 1.87185 32.2301 1.87185C32.1537 1.87185 32.1028 1.94842 32.1028 2.06754C32.1028 2.16964 32.0093 2.6376 31.8904 3.10557C31.763 3.57353 31.4658 4.56901 31.211 5.31775C30.9647 6.06649 30.5316 7.27468 30.2513 7.9979C29.8352 9.06145 29.6993 9.33372 29.5379 9.38477C29.4275 9.4188 28.6971 9.46985 27.8988 9.49538C27.1005 9.5209 26.4041 9.51239 26.3446 9.46985C26.2682 9.4188 26.2937 9.06996 26.4975 7.87027C26.6419 7.02794 26.8542 5.81975 26.9731 5.19012C27.092 4.5605 27.2873 3.65861 27.3977 3.19065C27.5166 2.72269 27.729 1.97395 27.8649 1.53151C28.0092 1.08907 28.1366 0.672162 28.1621 0.621112C28.1876 0.544536 28.0262 0.484977 27.661 0.425418C27.3723 0.382876 26.9816 0.323317 26.7948 0.289284L26.455 0.238233C25.8351 2.39086 25.5208 3.69264 25.3595 4.50945C25.1981 5.32626 24.9433 6.73014 24.799 7.61502C24.6461 8.49989 24.5017 9.25714 24.4677 9.29968C24.4423 9.33372 23.9752 9.29968 23.4401 9.22311C22.9051 9.15504 22.0982 9.01891 21.6566 8.92531C21.215 8.83172 20.646 8.70409 20.3997 8.63603C19.992 8.51691 19.9666 8.49138 20.0345 8.31271C20.0685 8.21061 20.3997 7.66607 20.7564 7.10451C21.1131 6.54296 21.6481 5.60704 21.9454 5.01996C22.2426 4.43288 22.6248 3.59054 22.8031 3.14811C22.9815 2.70567 23.2278 1.91439 23.3552 1.40388C23.4826 0.89338 23.61 0.365859 23.6439 0.229725L23.6949 -1.90735e-06H21.9284L21.8689 0.323317Z" fill="#FB8F1F"/>
<path d="M21.1471 0.0510483C20.9857 0.0680652 20.5271 0.119116 20.1279 0.170166C19.7288 0.221217 19.1937 0.306301 18.9389 0.348843C18.6841 0.399893 18.2255 0.493485 17.9198 0.561553C17.6141 0.638128 17.1045 0.774263 16.7733 0.867855C16.4421 0.961448 15.7032 1.20819 15.1172 1.4209C14.5312 1.63361 13.563 2.05052 12.9515 2.35683C12.34 2.66313 11.8305 2.92689 11.805 2.94391C11.7795 2.96092 11.9069 3.19916 12.0937 3.46292C12.2721 3.73519 12.8241 4.3563 13.3252 4.84979C13.8178 5.34328 14.5482 5.96439 14.9473 6.22815C15.3465 6.49191 16.1278 6.94286 16.6883 7.22363C17.2489 7.50441 17.7839 7.73414 17.8773 7.74265C17.9708 7.75115 18.0981 7.75966 18.1491 7.75115C18.2086 7.75115 18.5228 7.35126 18.8455 6.87479C19.1597 6.38981 19.6693 5.58151 19.9581 5.0625C20.2553 4.55199 20.6545 3.76071 20.8583 3.31828C21.0536 2.87584 21.3424 2.09307 21.5122 1.57405C21.6736 1.06355 21.835 0.493486 21.8605 0.323317C21.9114 0.0170151 21.9029 -2.16726e-06 21.6821 0.0170146C21.5462 0.0170146 21.3084 0.0425399 21.1471 0.0510483ZM23.6439 0.238233C23.61 0.365859 23.4826 0.89338 23.3552 1.40388C23.2278 1.9229 22.9815 2.70567 22.8032 3.14811C22.6248 3.59054 22.2426 4.43288 21.9454 5.01996C21.6481 5.60704 21.1131 6.54296 20.7564 7.10452C20.3997 7.66607 20.0685 8.21061 20.0345 8.32122C19.9666 8.49139 19.992 8.51691 20.4082 8.63603C20.646 8.70409 21.215 8.83172 21.6566 8.92531C22.0983 9.01891 22.9051 9.15504 23.4401 9.22311C23.9752 9.29968 24.4423 9.33372 24.4677 9.29968C24.5017 9.25714 24.6461 8.49989 24.799 7.61502C24.9433 6.73015 25.1981 5.32626 25.3595 4.50945C25.5208 3.69265 25.8351 2.39937 26.0559 1.64212C26.2767 0.884872 26.4381 0.246742 26.4126 0.221217C26.3871 0.195691 26.0049 0.136133 25.5633 0.0935905C25.1217 0.0425399 24.5187 -1.90735e-06 24.2299 -1.90735e-06C23.7204 -1.90735e-06 23.6949 0.00850675 23.6439 0.238233ZM28.1536 0.706196C28.0942 0.808296 27.9498 1.2167 27.8309 1.61659C27.712 2.01649 27.5167 2.72269 27.3978 3.19065C27.2873 3.65861 27.092 4.5605 26.9731 5.19012C26.8542 5.81975 26.6419 7.02794 26.4975 7.87027C26.2937 9.06996 26.2682 9.4188 26.3446 9.46985C26.4041 9.51239 27.1005 9.5209 27.8988 9.49538C28.6972 9.46985 29.4275 9.4188 29.5379 9.38477C29.6908 9.33372 29.8267 9.08697 30.1664 8.21061C30.4042 7.60651 30.7609 6.64506 30.9562 6.08351C31.1601 5.52195 31.4573 4.58603 31.6357 3.99895C31.8055 3.41187 32.0008 2.68015 32.0688 2.36533C32.1792 1.8293 32.1792 1.77825 32.0348 1.71019C31.9584 1.66765 31.3129 1.43792 30.6165 1.19968C29.9116 0.961448 29.0963 0.714704 28.8076 0.646637C28.281 0.527519 28.264 0.527519 28.1536 0.706196ZM33.7249 2.90987C33.6739 3.11407 33.4786 3.81176 33.2833 4.46691C33.0879 5.12206 32.7057 6.28771 32.4255 7.06197C32.1452 7.83624 31.8735 8.58498 31.8225 8.73813C31.7631 8.89128 31.7546 9.04443 31.7885 9.07846C31.8225 9.1125 32.1707 9.07846 32.5529 8.99338C32.9351 8.89979 33.7079 8.70409 34.2684 8.54244C34.8289 8.38078 35.8226 8.03193 36.4765 7.76817C37.1305 7.50441 38.0222 7.13004 38.4554 6.92584C38.88 6.72164 39.2282 6.51744 39.2197 6.47489C39.2027 6.43235 38.9055 6.14307 38.5573 5.82825C38.2091 5.51344 37.6316 5.03697 37.2834 4.7647C36.9352 4.50094 36.2642 4.02447 35.7971 3.71817C35.33 3.42038 34.6931 3.02899 34.3873 2.85031L33.8268 2.54401L33.7249 2.90987ZM9.41851 4.50945C8.97689 4.84128 8.20408 5.4709 7.703 5.91334C7.20193 6.35578 6.78578 6.74716 6.78578 6.7812C6.78578 6.82374 7.10002 7.1896 7.4737 7.61502C7.85587 8.03193 8.45886 8.74664 8.81553 9.18907C9.18072 9.63151 9.6733 10.3037 9.92808 10.678C10.1829 11.0524 10.633 11.8182 10.9302 12.3797C11.236 12.9413 11.5162 13.4518 11.5587 13.5028C11.6097 13.5879 11.7031 13.5794 11.9494 13.4518C12.1277 13.3582 12.6713 13.0008 13.1553 12.652C13.6479 12.3031 14.5312 11.597 15.1087 11.0779C15.6947 10.5674 16.3401 9.97185 16.544 9.76765C16.7563 9.56344 16.8922 9.35073 16.8582 9.29117C16.8327 9.24012 16.3996 8.98487 15.8985 8.72962C15.3974 8.48288 14.5651 7.98939 14.0471 7.64905C13.5205 7.2917 12.7392 6.65357 12.2381 6.16859C11.754 5.70063 11.1256 5.00294 10.8368 4.61155C10.5481 4.22867 10.2933 3.91386 10.2678 3.91386C10.2508 3.91386 9.86863 4.18613 9.41851 4.50945ZM39.9076 8.04895C39.6104 8.22762 38.9225 8.55945 38.3789 8.8062C37.8439 9.05294 36.9097 9.42731 36.2982 9.64853C35.6952 9.86975 34.7016 10.176 34.0901 10.3377C33.4871 10.4909 32.5699 10.7121 32.0518 10.8142C31.5422 10.9163 31.0497 11.0609 30.9647 11.1375C30.8798 11.2141 30.0645 12.7881 29.1388 14.6345C28.2216 16.4808 27.4487 18.0293 27.4232 18.0718C27.3978 18.1229 27.4997 18.1229 27.678 18.0889C27.8479 18.0548 29.1643 17.6294 30.608 17.1444C32.0603 16.6595 34.0051 15.9618 34.9394 15.5874C35.8736 15.2045 37.3853 14.5664 38.294 14.1665C39.2112 13.7581 40.706 13.0519 41.6317 12.5839L43.3048 11.7416C42.9565 11.112 42.6678 10.644 42.43 10.2952C42.1922 9.94632 41.7845 9.36775 41.5213 9.01891C41.2495 8.67006 40.9013 8.23613 40.7484 8.05746L40.4597 7.74265L39.9076 8.04895ZM5.10421 8.65304C4.85792 8.96786 4.30589 9.74212 3.88974 10.3717C3.45661 11.0184 2.81116 12.1585 2.41199 12.9668C2.02133 13.7666 1.52874 14.9322 1.31642 15.5619C1.09561 16.1915 0.942741 16.7616 0.96822 16.8211C1.00219 16.8977 1.18903 16.9147 1.67312 16.8807C2.03831 16.8466 2.81116 16.753 3.38867 16.6595C3.97467 16.5659 4.89189 16.3872 5.42694 16.251C5.97047 16.1149 6.90468 15.8256 7.50767 15.6044C8.11915 15.3832 8.88347 15.0769 9.20619 14.9237C9.53741 14.7706 9.85165 14.6089 9.91109 14.5664C9.99602 14.5153 9.96205 14.3452 9.74124 13.8176C9.58837 13.4433 9.30811 12.8732 9.12127 12.5414C8.94292 12.2181 8.62019 11.6991 8.4164 11.3927C8.21257 11.0864 7.77095 10.5164 7.43973 10.1165C7.10851 9.71659 6.56497 9.10399 6.24224 8.75515C5.91952 8.4063 5.63926 8.10851 5.60528 8.1C5.57981 8.09149 5.3505 8.33823 5.10421 8.65304ZM42.4979 14.0474C41.6572 14.4728 40.3408 15.1109 39.5679 15.4598C38.8036 15.8086 37.3683 16.4127 36.3831 16.8126C35.4065 17.2125 33.9542 17.7826 33.1559 18.0718C32.366 18.3611 31.0666 18.8206 30.2683 19.0758C29.4785 19.3396 28.4084 19.6714 27.8903 19.8246C27.3808 19.9692 26.8542 20.1479 26.7268 20.2075C26.5909 20.284 26.489 20.3946 26.489 20.4967C26.489 20.5903 26.6504 21.2114 26.8457 21.8836C27.0326 22.5473 27.3978 23.6108 27.6525 24.2404C27.9073 24.8701 28.3574 25.8485 28.6462 26.4101C28.9349 26.9716 29.504 27.9501 29.9116 28.5797C30.3108 29.2093 30.7524 29.856 30.8798 30.0176L31.1176 30.3069C32.1028 28.869 32.6803 28.0862 33.037 27.6438C33.3937 27.2014 34.0561 26.4356 34.5232 25.9421C34.9903 25.4486 35.7886 24.6488 36.2982 24.1639C36.8163 23.6789 37.6401 22.9557 38.1241 22.5643C38.6167 22.1729 39.3811 21.6028 39.8227 21.3135C40.2728 21.0158 41.207 20.4542 41.9119 20.0628C42.6168 19.6714 43.7634 19.1014 44.4598 18.8036C45.1562 18.4973 45.7507 18.242 45.7677 18.225C45.7931 18.208 45.7252 17.8421 45.6063 17.4082C45.4959 16.9828 45.2581 16.183 45.0713 15.647C44.8844 15.1109 44.6042 14.3537 44.4513 13.9708C44.2899 13.5794 44.1286 13.2646 44.0946 13.2731C44.0606 13.2731 43.3387 13.622 42.4979 14.0474ZM9.33359 16.719C8.8495 16.9232 8.00874 17.2465 7.46521 17.4252C6.93016 17.6039 6.08937 17.8506 5.59679 17.9697C5.1127 18.0974 4.36534 18.2505 3.9407 18.3186C3.52455 18.3952 2.59034 18.5143 1.85996 18.5824C1.13808 18.6589 0.518101 18.744 0.492622 18.778C0.458651 18.8121 0.373723 19.2375 0.297288 19.731C0.229346 20.2245 0.135925 21.0413 0.101954 21.5518L0.0340118 22.4792C1.08712 22.3941 2.79417 22.258 4.49273 22.1133C6.19978 21.9687 8.17011 21.7985 8.86648 21.7305C9.58837 21.6539 10.1914 21.5518 10.2508 21.4922C10.3103 21.4412 10.4037 21.1264 10.4546 20.7945C10.5141 20.4712 10.565 19.4162 10.565 18.4547C10.565 17.2125 10.5396 16.6595 10.4631 16.5233C10.4037 16.4127 10.3272 16.3276 10.2933 16.3361C10.2593 16.3361 9.82617 16.5148 9.33359 16.719ZM44.2814 20.735C43.4406 21.1519 42.3366 21.7475 41.8185 22.0623C41.3089 22.3856 40.5276 22.8961 40.0775 23.2024C39.6359 23.5172 38.9479 24.0447 38.5488 24.3766C38.1581 24.7169 37.1814 25.6528 36.3831 26.4611C35.5933 27.2779 34.6506 28.3245 34.2939 28.7924C33.9372 29.2604 33.3597 30.0857 33.003 30.6217C32.6378 31.1578 32.349 31.6427 32.349 31.6853C32.349 31.7363 32.7227 32.1277 33.1813 32.5702C33.6315 33.0041 34.4298 33.7273 34.9394 34.1697C35.4574 34.6207 36.4511 35.412 37.1475 35.9395C37.8524 36.4585 38.88 37.2072 39.4405 37.5901C40.0011 37.973 40.5191 38.2878 40.5871 38.2793C40.6635 38.2793 40.9438 38.007 41.2155 37.6667C41.4873 37.3264 42.0478 36.5266 42.4725 35.897C42.8886 35.2673 43.4576 34.3059 43.7294 33.7698C44.0012 33.2338 44.3664 32.451 44.5447 32.0256C44.7146 31.6087 44.9693 30.9366 45.1052 30.5367C45.2411 30.1368 45.4789 29.2944 45.6403 28.6648C45.7931 28.0352 45.9885 27.0567 46.0819 26.4952C46.2008 25.6954 46.2348 24.9892 46.2348 23.2194C46.2348 21.9772 46.2178 20.7435 46.1923 20.4797C46.1498 20.0628 46.1159 19.9862 45.98 19.9862C45.8866 19.9862 45.1222 20.3266 44.2814 20.735ZM5.42694 23.7299C3.54154 23.9086 1.55422 24.0788 1.01068 24.1128L0.0340118 24.1724C0.144418 25.3125 0.203868 25.7975 0.229346 25.9762L0.288796 26.308C1.21451 26.2229 1.99585 26.1718 2.62431 26.1463C3.26977 26.1123 4.31438 26.1378 5.0023 26.1889C5.68172 26.2484 6.71784 26.3675 7.29535 26.4696C8.33996 26.6398 8.36544 26.6398 8.48434 26.4782C8.56074 26.3931 8.8495 25.7634 9.13825 25.0913C9.42701 24.4106 9.68179 23.7555 9.71576 23.6278C9.75823 23.3896 9.75822 23.3896 9.3166 23.3981C9.07031 23.4066 7.32083 23.5513 5.42694 23.7299ZM1.37587 27.9331C0.942741 27.9841 0.586043 28.0522 0.586043 28.0947C0.586043 28.1288 0.679464 28.5287 0.798363 28.9881C0.917263 29.4391 1.12109 30.1368 1.25697 30.5367C1.39286 30.9366 1.58819 31.4726 1.68161 31.7278C1.78353 31.9831 2.12324 32.7233 2.43747 33.37C2.75171 34.0166 3.04046 34.5271 3.07443 34.5186C3.1084 34.5016 3.45661 34.0762 3.86426 33.5571C4.26342 33.0466 5.01928 32.0171 5.53734 31.2769C6.06389 30.5452 6.69236 29.6007 6.93865 29.1923C7.18494 28.7839 7.38877 28.4011 7.38877 28.35C7.38028 28.2904 7.32083 28.2224 7.2359 28.1968C7.15097 28.1713 6.74332 28.0862 6.31868 28.0182C5.88555 27.9501 4.82395 27.882 3.85577 27.865C2.88759 27.848 1.82599 27.8735 1.37587 27.9331ZM9.15524 28.9371C9.0788 28.9966 8.83251 29.354 8.6117 29.7284C8.39092 30.1027 7.88985 30.8855 7.48219 31.4726C7.08303 32.0597 6.1743 33.3104 5.45241 34.2633C4.73902 35.2078 4.13603 36.0331 4.11055 36.0926C4.08507 36.1437 4.29739 36.5181 4.58615 36.918C4.8834 37.3179 5.42694 37.9985 5.80062 38.441C6.18279 38.8834 6.92167 39.6406 7.44822 40.1256C7.97477 40.6106 8.43338 41.002 8.46735 41.0105C8.50129 41.0105 8.81553 40.7127 9.16373 40.3468C9.52043 39.981 10.2083 39.2067 10.7009 38.6196C11.1935 38.0326 12.2296 36.7733 13.0025 35.8119C13.7753 34.8504 14.6416 33.7528 14.9303 33.37C15.2191 32.9786 15.4569 32.6127 15.4569 32.5617C15.4569 32.5021 15.1596 32.2128 14.7945 31.915C14.4293 31.6257 13.7753 31.1408 13.3252 30.843C12.8836 30.5452 12.1957 30.1197 11.7965 29.8985C11.4058 29.6858 10.7943 29.3795 10.4376 29.2179C10.0894 29.0562 9.69028 28.903 9.54591 28.8775C9.39303 28.8435 9.24016 28.869 9.15524 28.9371ZM31.3044 33.5316C31.228 33.6422 30.9732 34.1697 30.7354 34.7058C30.4976 35.2418 30.1664 36.0671 30.005 36.5351C29.8437 37.003 29.6144 37.7518 29.4955 38.1942C29.3766 38.6367 29.2916 39.1131 29.3086 39.2493C29.3341 39.4875 29.3766 39.513 30.056 39.6917C30.4552 39.7938 31.1601 40.0235 31.6272 40.1937C32.0943 40.3724 32.9351 40.7297 33.4956 40.9935C34.0561 41.2572 34.8459 41.6742 35.2366 41.9209C35.6358 42.1591 36.0009 42.3633 36.0434 42.3633C36.0944 42.3633 36.485 42.1081 36.9097 41.7848C37.3343 41.47 38.0732 40.8744 38.5403 40.4489C39.0159 40.032 39.3811 39.6662 39.3641 39.6406C39.3556 39.6151 38.9225 39.3173 38.4129 38.96C37.9033 38.6111 36.9776 37.939 36.3407 37.4625C35.7122 36.986 34.71 36.1947 34.1156 35.6928C33.5211 35.1993 32.7567 34.5356 32.417 34.2208C32.0773 33.8975 31.7206 33.5742 31.6272 33.4891C31.4488 33.3359 31.4403 33.3359 31.3044 33.5316ZM16.3741 34.2633C16.2127 34.4335 15.4059 35.4375 14.5991 36.4925C13.7838 37.5476 12.7477 38.8494 12.2976 39.3854C11.8475 39.9214 11.151 40.7297 10.7434 41.1722C10.3442 41.6146 10.013 42.0315 10.013 42.0911C10.013 42.1421 10.3357 42.3974 10.7179 42.6526C11.1001 42.9079 11.7965 43.3163 12.2636 43.5715C12.7307 43.8268 13.3337 44.1246 13.597 44.2352C13.9622 44.3968 14.1065 44.4224 14.1915 44.3543C14.2509 44.3033 14.7095 43.9374 15.1936 43.546C15.6862 43.1461 16.4675 42.576 16.9346 42.2697C17.4017 41.9634 18.0387 41.5806 18.3359 41.4104C18.6417 41.2487 19.3041 40.9254 19.8052 40.6957C20.3148 40.466 20.7224 40.2277 20.7224 40.1767C20.7224 40.1171 20.5526 39.7342 20.3487 39.3258C20.1449 38.9089 19.7712 38.2368 19.5249 37.8113C19.2786 37.3944 18.7436 36.5521 18.3275 35.9395C17.9198 35.3354 17.4102 34.6292 17.1979 34.391C16.9856 34.1442 16.7818 33.94 16.7393 33.94C16.7053 33.94 16.5355 34.0847 16.3741 34.2633ZM25.9795 41.0105C25.4954 41.053 24.7055 41.1466 24.2384 41.2147C23.7713 41.2913 23.3637 41.3679 23.3297 41.3934C23.2957 41.4104 23.2618 41.504 23.2618 41.5976C23.2618 41.6912 23.4316 42.3293 23.6354 43.027C23.8393 43.7162 24.1195 44.7287 24.2554 45.2817C24.4253 46.0049 24.5357 46.2772 24.6206 46.2772C24.697 46.2772 25.2321 46.2176 25.8096 46.1496C26.3956 46.073 26.9052 45.9879 26.9307 45.9539C26.9646 45.9199 26.9561 45.5114 26.9052 45.0435C26.8542 44.5755 26.8372 43.7502 26.8712 43.2142C26.8967 42.6781 26.9391 41.9379 26.9646 41.5806C26.9901 41.2147 26.9816 40.9254 26.9391 40.9339C26.9052 40.9339 26.472 40.9765 25.9795 41.0105ZM28.7056 41.7082C28.6547 41.9975 28.5867 42.8313 28.5613 43.5545C28.5273 44.4224 28.5443 45.0009 28.6037 45.2392C28.6717 45.4859 28.7481 45.5965 28.85 45.5965C28.9349 45.5965 29.4785 45.4519 30.056 45.2647C30.642 45.0775 31.4998 44.7627 31.9669 44.5755C32.434 44.3798 33.1644 44.048 33.5805 43.8353L34.3449 43.4524C34.0221 43.1887 33.589 42.9419 33.1813 42.7377C32.7737 42.5335 32.0518 42.2102 31.5847 42.023C31.1176 41.8358 30.3278 41.5721 29.8267 41.4274C29.3256 41.2828 28.884 41.1722 28.8585 41.1722C28.8245 41.1722 28.7566 41.4104 28.7056 41.7082ZM20.7989 42.1336C20.5441 42.2442 19.9326 42.542 19.44 42.7973C18.9559 43.061 18.1491 43.5375 17.6565 43.8693C17.1724 44.1926 16.6289 44.584 16.4505 44.7287C16.2722 44.8818 16.1278 45.052 16.1278 45.1116C16.1278 45.1711 16.3996 45.2987 16.7478 45.4008C17.0875 45.5029 17.716 45.6646 18.1491 45.7667C18.5822 45.8603 19.5249 46.0134 20.2468 46.107C20.9772 46.2006 21.835 46.2772 22.1577 46.2772C22.4889 46.2772 22.7522 46.2687 22.7607 46.2602C22.7607 46.2432 22.5059 45.3583 22.2002 44.2777C21.8944 43.2057 21.5887 42.2357 21.5207 42.1336C21.4528 42.023 21.3679 41.9379 21.3339 41.9379C21.2999 41.9379 21.0621 42.0315 20.7989 42.1336ZM17.4867 11.163C16.8582 11.7756 16.0004 12.5754 15.5758 12.9328C15.1596 13.2901 14.4717 13.8347 14.0471 14.141C13.6309 14.4558 13.0364 14.8472 12.7222 15.0088C12.4165 15.1705 12.1447 15.3577 12.1192 15.4172C12.0937 15.4683 12.1362 15.9447 12.1957 16.4552C12.2806 17.1189 12.3061 17.8932 12.2721 19.0929C12.2551 20.0288 12.2041 20.8881 12.1787 21.0072C12.1447 21.1519 12.1617 21.237 12.2381 21.2795C12.2976 21.305 12.6797 21.2965 13.0704 21.254C13.4696 21.2114 14.6161 21.0413 15.6183 20.8711C16.6289 20.7095 18.0981 20.4457 18.888 20.284C19.6863 20.1309 21.249 19.782 22.37 19.5183C23.4911 19.2545 24.4168 19.0333 24.4338 19.0248C24.4423 19.0163 24.4168 18.8206 24.3743 18.5824C24.3319 18.3526 24.2469 17.5443 24.196 16.7956C24.128 15.9277 24.111 14.6515 24.145 13.2646L24.196 11.095C22.0558 10.7291 20.8838 10.4909 20.2044 10.3292C19.5334 10.1675 18.8965 10.0314 18.803 10.0314C18.7011 10.0314 18.2001 10.4653 17.4867 11.163ZM26.4975 11.2141C26.0474 11.2651 26.0304 11.2736 25.9625 11.5629C25.9285 11.7246 25.8775 12.7456 25.8521 13.8176C25.8266 14.8982 25.8351 16.0128 25.8691 16.3106C25.9115 16.5999 25.9795 16.8551 26.0219 16.8637C26.0729 16.8722 26.7353 15.6384 27.4912 14.1154C28.247 12.5924 28.8415 11.3247 28.8076 11.2906C28.7736 11.2566 28.3405 11.2141 27.8479 11.1971C27.3638 11.1715 26.7523 11.18 26.4975 11.2141ZM22.5399 21.2285C22.1237 21.3391 20.9178 21.6028 19.8646 21.8155C18.82 22.0197 17.062 22.3431 15.958 22.5303C14.8624 22.7174 13.4441 22.9387 12.8071 23.0237L11.6436 23.1769C11.4228 23.9001 11.1171 24.7254 10.8198 25.4742C10.5311 26.2229 10.2678 26.9206 10.2338 27.0312C10.1914 27.1929 10.2423 27.2439 10.633 27.4056C10.8793 27.5162 11.5162 27.814 12.0513 28.0862C12.5948 28.35 13.4696 28.8605 14.0046 29.2179C14.5482 29.5752 15.338 30.1538 15.7711 30.5026C16.2043 30.8515 16.5864 31.1237 16.6204 31.1067C16.6544 31.0897 17.2998 30.2304 18.0472 29.2093C18.7946 28.1883 19.9411 26.5802 20.595 25.6443C21.2405 24.7084 22.1662 23.33 22.6503 22.5813C23.1259 21.8326 23.525 21.1689 23.525 21.1179C23.5165 21.0583 23.4741 21.0158 23.4146 21.0158C23.3552 21.0243 22.9645 21.1179 22.5399 21.2285ZM24.5781 22.7515C24.3488 23.1173 23.4826 24.3936 22.6673 25.5933C21.8435 26.793 20.5865 28.5882 19.8646 29.5837C19.1428 30.5792 18.3869 31.6172 18.1916 31.881L17.8349 32.366C19.423 34.476 20.1449 35.5141 20.4761 36.0246C20.7989 36.5436 21.3679 37.5646 21.7416 38.3048C22.1152 39.0366 22.4634 39.6662 22.5229 39.6917C22.5823 39.7172 22.973 39.6747 23.3892 39.6066C23.8138 39.5385 24.5187 39.445 24.9603 39.3939C25.4104 39.3429 26.1493 39.2833 26.6164 39.2578L27.4657 39.1982C27.712 38.1262 27.9073 37.4285 28.0602 36.9605C28.2131 36.4925 28.5188 35.6502 28.7396 35.0887C28.9689 34.5271 29.3681 33.5912 29.6483 33.0041C29.9201 32.417 30.1494 31.9235 30.1494 31.898C30.1494 31.8725 29.9031 31.5321 29.6059 31.1322C29.3086 30.7324 28.8161 30.0262 28.5103 29.5582C28.2046 29.0902 27.7205 28.2904 27.4402 27.7714C27.16 27.2609 26.7438 26.4356 26.5315 25.9421C26.3107 25.4486 25.903 24.4191 25.6313 23.6449C25.3595 22.8706 25.1047 22.2069 25.0622 22.1644C25.0283 22.1218 24.8075 22.3856 24.5781 22.7515Z" fill="black"/>
</g>
<defs>
<clipPath id="clip0_62_185">
<rect width="46.3708" height="46.2857" fill="white"/>
</clipPath>
</defs>
</svg>
