<?xml version="1.0" encoding="utf-8"?><svg viewBox="0 0 48 48" xmlns="http://www.w3.org/2000/svg" xmlns:xlink="http://www.w3.org/1999/xlink"><style>:root>svg{display:none}:root>svg:target{display:block}</style><svg viewBox="0 0 48 48" id="telegram" xmlns="http://www.w3.org/2000/svg"><circle opacity=".6" cx="24" cy="24" r="23.5"/><path fill-rule="evenodd" clip-rule="evenodd" d="M31.777 15.43a1.5 1.5 0 012.062 1.626l-2.268 13.757c-.22 1.327-1.676 2.088-2.893 1.427-1.018-.553-2.53-1.405-3.89-2.294-.68-.445-2.763-1.87-2.507-2.884.22-.867 3.72-4.125 5.72-6.062.785-.761.427-1.2-.5-.5-2.302 1.738-5.998 4.381-7.22 5.125-1.078.656-1.64.768-2.312.656-1.226-.204-2.363-.52-3.291-.905-1.254-.52-1.193-2.244-.001-2.746l17.1-7.2z" opacity=".6"/></svg><svg viewBox="0 0 48 48" id="twitter" xmlns="http://www.w3.org/2000/svg"><circle opacity=".6" cx="24" cy="24" r="23.5"/><g opacity=".6" clip-path="url(#ba)"><mask id="ba" maskUnits="userSpaceOnUse" x="14" y="13" width="20" height="20"><path d="M14 13h20v20H14V13z"/></mask><g mask="url(#ba)"><path d="M29.75 13.937h3.067l-6.7 7.677L34 32.063h-6.171l-4.838-6.336-5.528 6.336h-3.07l7.166-8.214L14 13.939h6.329l4.365 5.79 5.056-5.792zm-1.079 16.286h1.7L19.4 15.68h-1.823l11.094 14.542z"/></g></g><defs><clipPath id="ba"><path transform="translate(14 13)" d="M0 0h20v20H0z"/></clipPath></defs></svg></svg>